{"title":"FA Cup 4th Round, Spurs V Leeds Utd Mentalpen Release","uid":5308124,"size":1975108086,"categoryP":"video","categoryS":"movies_dvdr","magnet":"?xt=urn:btih:03a0737b6de8007144c882da25d1f43f93ed4d98&amp;dn=FA+Cup+4th+Round%2C+Spurs+V+Leeds+Utd+Mentalpen+Release&amp;tr=udp%3A%2F%2Ftracker.openbittorrent.com%3A80&amp;tr=udp%3A%2F%2Fopen.demonii.com%3A1337&amp;tr=udp%3A%2F%2Ftracker.coppersurfer.tk%3A6969&amp;tr=udp%3A%2F%2Fexodus.desync.com%3A6969","seeders":0,"leechers":0,"uploader":"Mentalpen","files":39,"time":1264467803,"description":"FA Cup 4th Round, Spurs V Leeds Utd dvd .iso\n\nmissing first couple of mins of pre match build up.\n\nno adds and chapter marked as pre match part 1, pre match part 2, first half, half time analysis, second half, post match analysis.\n\nDownload, unrar (no password), burn using imgburn (free @ http://www.imgburn.com/) enjoy.\n\n\nVideo\nID                               : 0\nFormat                           : MPEG-4 Visual\nFormat profile                   : Advanced Simple@L5\nFormat settings, BVOP            : Yes\nFormat settings, QPel            : No\nFormat settings, GMC             : No warppoints\nFormat settings, Matrix          : Default (MPEG)\nMuxing mode                      : Packed bitstream\nCodec ID                         : XVID\nCodec ID/Hint                    : XviD\nDuration                         : 1h 59mn\nBit rate                         : 1 767 Kbps\nWidth                            : 704 pixels\nHeight                           : 384 pixels\nDisplay aspect ratio             : 16:9\nFrame rate                       : 23.976 fps\nResolution                       : 8 bits\nColorimetry                      : 4:2:0\nScan type                        : Progressive\nBits/(Pixel*Frame)               : 0.273\nStream size                      : 2.01 GiB (79%)\nWriting library                  : XviD 1.2.1 (UTC 2008-12-04)\n\nAudio\nID                               : 1\nFormat                           : AC-3\nFormat/Info                      : Audio Coding 3\nCodec ID                         : 2000\nDuration                         : 1h 59mn\nBit rate mode                    : Constant\nBit rate                         : 448 Kbps\nChannel(s)                       : 6 channels\nChannel positions                : Front: L C R, Surround: L R, LFE\nSampling rate                    : 48.0 KHz\nStream size                      : 412 MiB (20%)\nAlignment                        : Aligned on interleaves\nInterleave, duration             : 42 ms (1.00 video frame)\nInterleave, preload duration     : 512 ms\n\nRegards\nMentalpen","torrent":{"xt":"urn:btih:03a0737b6de8007144c882da25d1f43f93ed4d98","amp;dn":"FA+Cup+4th+Round%2C+Spurs+V+Leeds+Utd+Mentalpen+Release","amp;tr":["udp%3A%2F%2Ftracker.openbittorrent.com%3A80","udp%3A%2F%2Fopen.demonii.com%3A1337","udp%3A%2F%2Ftracker.coppersurfer.tk%3A6969","udp%3A%2F%2Fexodus.desync.com%3A6969"],"infoHash":"03a0737b6de8007144c882da25d1f43f93ed4d98","infoHashBuffer":{"type":"Buffer","data":[3,160,115,123,109,232,0,113,68,200,130,218,37,209,244,63,147,237,77,152]},"announce":[],"urlList":[]}}